<svg width="41" height="40" viewBox="0 0 41 40" fill="none" xmlns="http://www.w3.org/2000/svg">
<path d="M19.2544 10.045V7.5H15.5044C15.1729 7.5 14.8549 7.3683 14.6205 7.13388C14.3861 6.89946 14.2544 6.58152 14.2544 6.25C14.2544 5.91848 14.3861 5.60054 14.6205 5.36612C14.8549 5.1317 15.1729 5 15.5044 5H25.5044C25.8359 5 26.1539 5.1317 26.3883 5.36612C26.6227 5.60054 26.7544 5.91848 26.7544 6.25C26.7544 6.58152 26.6227 6.89946 26.3883 7.13388C26.1539 7.3683 25.8359 7.5 25.5044 7.5H21.7544V10.045C24.1526 10.2161 26.4898 10.8796 28.6203 11.994C30.7507 13.1085 32.6287 14.6499 34.137 16.5223C35.6453 18.3947 36.7516 20.5577 37.3868 22.8766C38.0221 25.1954 38.1728 27.6203 37.8294 30H3.1794C2.83602 27.6203 2.98667 25.1954 3.62196 22.8766C4.25725 20.5577 5.36355 18.3947 6.87185 16.5223C8.38016 14.6499 10.2581 13.1085 12.3885 11.994C14.519 10.8796 16.8562 10.2161 19.2544 10.045ZM5.5044 27.5H35.5044C35.5044 25.5302 35.1164 23.5796 34.3626 21.7597C33.6088 19.9399 32.5039 18.2863 31.111 16.8934C29.7181 15.5005 28.0645 14.3956 26.2447 13.6418C24.4248 12.888 22.4742 12.5 20.5044 12.5C18.5346 12.5 16.584 12.888 14.7642 13.6418C12.9443 14.3956 11.2907 15.5005 9.8978 16.8934C8.50492 18.2863 7.40003 19.9399 6.64621 21.7597C5.89239 23.5796 5.5044 25.5302 5.5044 27.5ZM4.2544 32.5H36.7544C37.0859 32.5 37.4039 32.6317 37.6383 32.8661C37.8727 33.1005 38.0044 33.4185 38.0044 33.75C38.0044 34.0815 37.8727 34.3995 37.6383 34.6339C37.4039 34.8683 37.0859 35 36.7544 35H4.2544C3.92288 35 3.60494 34.8683 3.37052 34.6339C3.1361 34.3995 3.0044 34.0815 3.0044 33.75C3.0044 33.4185 3.1361 33.1005 3.37052 32.8661C3.60494 32.6317 3.92288 32.5 4.2544 32.5Z" fill="#FFA12E"/>
</svg>
