<svg width="72" height="24" viewBox="0 0 72 24" fill="none" xmlns="http://www.w3.org/2000/svg">
<path d="M10.583 8.29705C11.407 5.49355 14.7445 4.33305 17.1295 6.02105C19.1925 7.48005 19.5385 10.404 17.8735 12.3045L16.3085 14.0915C13.6992 17.071 10.4038 19.3706 6.70698 20.7915L4.92798 21.476C4.66723 21.576 4.37931 21.5794 4.1163 21.4855C3.85328 21.3917 3.63253 21.2068 3.49397 20.9643C3.3554 20.7219 3.30817 20.4378 3.36081 20.1636C3.41345 19.8893 3.5625 19.643 3.78098 19.469L5.17098 18.365C7.25341 16.7107 8.77362 14.4532 9.52348 11.9015L10.583 8.29705Z" stroke="#878787" stroke-width="2"/>
<path d="M14.9219 5.34198C15.0419 4.97755 15.2454 4.64616 15.5161 4.3742C15.7868 4.10224 16.1172 3.89721 16.4811 3.77543C16.8449 3.65364 17.2322 3.61847 17.612 3.6727C17.9919 3.72693 18.3538 3.86908 18.6691 4.08782C18.9843 4.30656 19.2442 4.59587 19.4279 4.93271C19.6117 5.26955 19.7143 5.64463 19.7276 6.02811C19.7409 6.41159 19.6645 6.79287 19.5045 7.14162C19.3444 7.49037 19.1052 7.79695 18.8059 8.03698" stroke="#878787" stroke-width="2"/>
<path d="M21 2L19 4" stroke="#878787" stroke-width="2" stroke-linecap="round"/>
<path d="M34.583 8.29705C35.407 5.49355 38.7445 4.33305 41.1295 6.02105C43.1925 7.48005 43.5385 10.404 41.8735 12.3045L40.3085 14.0915C37.6992 17.071 34.4038 19.3706 30.707 20.7915L28.928 21.476C28.6672 21.576 28.3793 21.5794 28.1163 21.4855C27.8533 21.3917 27.6325 21.2068 27.494 20.9643C27.3554 20.7219 27.3082 20.4378 27.3608 20.1636C27.4135 19.8893 27.5625 19.643 27.781 19.469L29.171 18.365C31.2534 16.7107 32.7736 14.4532 33.5235 11.9015L34.583 8.29705Z" stroke="#878787" stroke-width="2"/>
<path d="M38.9219 5.34198C39.0419 4.97755 39.2454 4.64616 39.5161 4.3742C39.7868 4.10224 40.1172 3.89721 40.4811 3.77543C40.8449 3.65364 41.2322 3.61847 41.612 3.6727C41.9919 3.72693 42.3538 3.86908 42.6691 4.08782C42.9843 4.30656 43.2442 4.59587 43.4279 4.93271C43.6117 5.26955 43.7143 5.64463 43.7276 6.02811C43.7409 6.41159 43.6645 6.79287 43.5045 7.14162C43.3444 7.49037 43.1052 7.79695 42.8059 8.03698" stroke="#878787" stroke-width="2"/>
<path d="M45 2L43 4" stroke="#878787" stroke-width="2" stroke-linecap="round"/>
<path d="M58.583 8.29705C59.407 5.49355 62.7445 4.33305 65.1295 6.02105C67.1925 7.48005 67.5385 10.404 65.8735 12.3045L64.3085 14.0915C61.6992 17.071 58.4038 19.3706 54.707 20.7915L52.928 21.476C52.6672 21.576 52.3793 21.5794 52.1163 21.4855C51.8533 21.3917 51.6325 21.2068 51.494 20.9643C51.3554 20.7219 51.3082 20.4378 51.3608 20.1636C51.4135 19.8893 51.5625 19.643 51.781 19.469L53.171 18.365C55.2534 16.7107 56.7736 14.4532 57.5235 11.9015L58.583 8.29705Z" stroke="#878787" stroke-width="2"/>
<path d="M62.9219 5.34198C63.0419 4.97755 63.2454 4.64616 63.5161 4.3742C63.7868 4.10224 64.1172 3.89721 64.4811 3.77543C64.8449 3.65364 65.2322 3.61847 65.612 3.6727C65.9919 3.72693 66.3538 3.86908 66.6691 4.08782C66.9843 4.30656 67.2442 4.59587 67.4279 4.93271C67.6117 5.26955 67.7143 5.64463 67.7276 6.02811C67.7409 6.41159 67.6645 6.79287 67.5045 7.14162C67.3444 7.49037 67.1052 7.79695 66.8059 8.03698" stroke="#878787" stroke-width="2"/>
<path d="M69 2L67 4" stroke="#878787" stroke-width="2" stroke-linecap="round"/>
</svg>
