<svg width="35" height="40" viewBox="0 0 35 40" fill="none" xmlns="http://www.w3.org/2000/svg">
<path d="M14.8645 38.1323V33.3826C10.2057 33.0324 6.4262 31.0758 3.49136 27.5743C1.15257 24.7865 -0.0288663 21.5229 0.000535554 17.8771C0.00320845 17.4467 0.503041 17.0084 0.802405 16.5967C1.01356 16.3054 1.37708 16.0942 1.50805 15.7815C2.86856 12.4965 5.13253 10.9863 8.61264 11.0344C8.93606 11.0398 9.32898 10.8153 9.58023 10.5827C10.7216 9.51891 11.8255 8.41233 13.1726 7.09459C12.9534 6.03345 12.9587 4.63284 14.5972 3.74811C14.7416 3.6706 14.5117 2.51591 14.1803 2.06152C13.8809 1.65524 13.1806 1.56436 12.6995 1.26232C12.4162 1.08324 12.2157 0.773179 11.9778 0.519254C12.328 0.337496 12.6861 -0.0179999 13.0256 0.000710441C14.4663 0.0782245 15.7011 1.27301 16.0727 2.77251C16.1636 3.14137 16.2411 3.67595 16.495 3.81227C18.1255 4.69165 18.1576 6.06285 17.8528 7.2015C19.1465 8.46311 20.2531 9.56969 21.3944 10.6389C21.6216 10.8527 21.9638 11.005 22.2738 11.0585C23.7279 11.3044 25.1926 11.5075 27.0824 11.7909C27.8575 11.0157 29.0175 9.86638 30.1696 8.70902C31.3323 7.54096 32.4656 6.34617 33.6604 5.21286C33.8689 5.01507 34.3125 5.06586 34.6467 5.00171C34.6279 5.36255 34.7082 5.7715 34.5638 6.07354C34.3981 6.41567 34.0453 6.67494 33.7512 6.9449C31.6931 8.84801 29.6296 10.7458 27.7185 12.5072C28.4883 14.0334 29.0149 15.0866 29.5495 16.137C29.6083 16.2519 29.6831 16.4284 29.7766 16.4497C31.7038 16.8507 31.0837 18.3448 30.9207 19.4327C29.7499 27.2269 24.3239 32.4203 16.3533 33.3879V38.1269C18.5398 38.1269 20.7075 38.1269 22.8752 38.1269C23.7653 38.1269 24.6634 38.0628 25.5401 38.1751C25.8715 38.2178 26.4382 38.7257 26.3981 38.9155C26.3152 39.3004 25.925 39.6478 25.5962 39.9392C25.4679 40.0514 25.1659 39.9739 24.9441 39.9739C18.7109 39.9739 12.4803 39.9739 6.2471 39.9739C6.1589 39.9739 6.04397 40.0087 5.98516 39.9686C5.54413 39.6478 5.11379 39.3137 4.68079 38.9823C5.1031 38.6963 5.52008 38.1804 5.95041 38.167C8.39612 38.0869 10.8445 38.1269 13.2929 38.1269C13.7767 38.1269 14.2578 38.1269 14.8619 38.1269L14.8645 38.1323ZM29.0817 18.5105H1.98116C1.79139 23.9285 6.57588 30.7818 14.4476 31.426C22.0092 32.0461 28.777 26.0401 29.0817 18.5105ZM3.42454 16.4791H27.6143C27.5341 16.1744 27.5127 15.9526 27.4245 15.7681C26.4195 13.6993 24.4629 12.6916 21.8782 13.0257C21.0603 13.13 20.5311 13.0311 20.1489 12.2399C19.1973 10.2673 17.6524 9.16876 15.3991 9.19816C13.2047 9.22756 11.788 10.3876 10.7376 12.2292C10.5077 12.6328 9.83949 12.8975 9.32896 13.0017C8.73558 13.1246 8.08875 12.9563 7.46863 12.991C5.57622 13.1006 3.83082 14.6081 3.42454 16.4765V16.4791ZM15.5782 7.79489C16.1261 7.00905 16.6955 6.52793 16.6099 6.23659C16.4709 5.75814 15.9097 5.39997 15.5274 4.98834C15.1292 5.39195 14.5171 5.75012 14.4128 6.21788C14.3407 6.53862 14.9768 7.01975 15.5782 7.79221V7.79489Z" fill="#878787"/>
</svg>
