<svg width="48" height="48" viewBox="0 0 48 48" fill="none" xmlns="http://www.w3.org/2000/svg">
<g filter="url(#filter0_d_876_196)">
<path d="M25.8614 39.9834C23.4993 39.9834 21.1371 39.9513 18.7776 39.9967C17.7397 40.0154 17.3116 39.5854 17.3197 38.581C17.3277 37.3363 17.7209 35.8298 17.1592 34.9216C16.6268 34.0642 15.0217 33.9253 13.9784 33.319C9.92822 30.9577 8.00211 27.3437 8.04224 22.712C8.05562 21.2455 8.39536 19.7845 8.52377 18.3153C8.55052 18.0055 8.34988 17.6582 8.20007 17.3564C6.99358 14.931 5.73893 12.5297 4.57792 10.0857C4.2462 9.3885 3.99473 8.57114 4.00008 7.81254C4.00811 6.61321 5.13702 5.46998 6.21511 5.29636C7.36007 5.11205 8.6388 5.85996 9.15243 7.12874C10.5087 10.4596 11.8624 13.7905 13.1331 17.1534C13.4781 18.0696 13.9543 18.326 14.8906 18.3234C23.8016 18.2913 32.7125 18.3047 41.6261 18.3047C43.9936 18.3047 44.0926 18.31 43.9642 20.7434C43.8465 22.9444 43.817 25.2442 43.1429 27.301C41.9525 30.9283 39.2586 33.2922 35.5348 34.3313C34.8178 34.5316 34.6038 34.8362 34.6306 35.5226C34.6707 36.5457 34.6011 37.5714 34.6493 38.5917C34.7001 39.6415 34.2293 40.0154 33.2154 39.9994C30.765 39.9647 28.3145 39.9887 25.8641 39.9887L25.8614 39.9834ZM9.76504 20.2813C9.76504 21.1868 9.75434 22.0202 9.76504 22.8536C9.86402 28.8315 13.9249 32.8408 19.9279 32.8675C23.9808 32.8862 28.039 32.9664 32.0865 32.8248C33.6916 32.7687 35.3957 32.4455 36.8483 31.7884C40.9787 29.9213 42.8941 25.4686 42.022 20.2813H9.76236H9.76504ZM19.1762 38.0495H32.7499V34.8148H19.1762V38.0495ZM11.2016 18.3955C11.3327 18.2886 11.4638 18.1818 11.5975 18.0749C10.292 14.7868 8.98924 11.496 7.67842 8.21054C7.42963 7.58283 7.18352 6.83759 6.27932 7.26496C5.46072 7.65227 5.65601 8.31471 5.98773 8.96646C7.43498 11.8165 8.86083 14.6746 10.3295 17.5113C10.5114 17.8613 10.9073 18.1017 11.2043 18.3955H11.2016Z" fill="#878787"/>
<path d="M27.3731 8.13862C27.0655 8.81441 26.806 9.41007 26.5278 9.99505C26.2843 10.5052 26.065 11.0394 25.744 11.5016C25.5353 11.8007 25.1635 11.9904 24.8665 12.2281C24.7488 11.8862 24.4626 11.4962 24.5455 11.2131C24.7247 10.5907 25.0163 9.96566 25.3962 9.43945C26.1345 8.42176 26.0837 7.50824 25.3507 6.51993C24.1522 4.90391 24.179 3.84081 25.2812 2.13931C25.6129 1.62646 25.768 1.00409 26.0757 0.472542C26.2014 0.256182 26.5251 0.15468 26.7605 -0.000244141C26.897 0.208102 27.1805 0.445831 27.1457 0.619453C27.0227 1.25518 26.9505 1.99775 26.5706 2.47053C25.5754 3.70993 25.5086 4.78371 26.5358 6.04714C26.9772 6.58938 27.0896 7.39873 27.3705 8.1413L27.3731 8.13862Z" fill="#878787"/>
<path d="M19.1992 10.0916C19.4614 9.38373 19.646 8.80143 19.8921 8.24584C20.173 7.61011 20.4779 6.97439 20.8418 6.38407C20.9969 6.13299 21.3286 5.99409 21.5828 5.80444C21.7406 6.07423 22.059 6.36805 22.0215 6.60578C21.9332 7.1587 21.8021 7.79175 21.4624 8.2031C20.4137 9.46386 20.3388 10.5884 21.4464 11.8785C21.8369 12.3326 21.9011 13.0912 22.0269 13.727C22.059 13.8899 21.7995 14.1891 21.6042 14.2879C21.4704 14.3573 21.0986 14.2451 21.0371 14.1169C20.4004 12.7841 19.8038 11.4325 19.2019 10.0942L19.1992 10.0916Z" fill="#878787"/>
<path d="M29.3594 10.0564C29.6643 9.33518 29.9212 8.69144 30.2074 8.06106C30.4589 7.50547 30.713 6.94721 31.0313 6.43168C31.1892 6.17526 31.4888 6.00431 31.7242 5.79596C31.8927 6.09512 32.2566 6.44504 32.195 6.68544C32.0238 7.35322 31.7777 8.04503 31.3764 8.59795C30.6434 9.61297 30.6756 10.4864 31.3764 11.5121C31.8018 12.1372 31.9917 12.9358 32.2138 13.6811C32.2592 13.8387 32.0265 14.1619 31.8392 14.2767C31.7108 14.3542 31.3149 14.266 31.2587 14.1458C30.6113 12.8156 30.0068 11.4667 29.3621 10.0564H29.3594Z" fill="#878787"/>
<path d="M20.7439 22.3674C23.1462 22.3674 25.5512 22.3407 27.9508 22.3968C28.3173 22.4048 28.6757 22.7921 29.0396 23.0058C28.6945 23.2302 28.352 23.6496 28.0043 23.6522C23.1114 23.695 18.2159 23.6977 13.3204 23.6522C12.9244 23.6496 12.5339 23.2195 12.1406 22.9871C12.5606 22.7815 12.9753 22.4075 13.4006 22.3995C15.8457 22.3434 18.2935 22.3728 20.7412 22.3728L20.7439 22.3674Z" fill="#878787"/>
</g>
<defs>
<filter id="filter0_d_876_196" x="0" y="-0.000244141" width="48" height="48.0001" filterUnits="userSpaceOnUse" color-interpolation-filters="sRGB">
<feFlood flood-opacity="0" result="BackgroundImageFix"/>
<feColorMatrix in="SourceAlpha" type="matrix" values="0 0 0 0 0 0 0 0 0 0 0 0 0 0 0 0 0 0 127 0" result="hardAlpha"/>
<feOffset dy="4"/>
<feGaussianBlur stdDeviation="2"/>
<feComposite in2="hardAlpha" operator="out"/>
<feColorMatrix type="matrix" values="0 0 0 0 0 0 0 0 0 0 0 0 0 0 0 0 0 0 0.25 0"/>
<feBlend mode="normal" in2="BackgroundImageFix" result="effect1_dropShadow_876_196"/>
<feBlend mode="normal" in="SourceGraphic" in2="effect1_dropShadow_876_196" result="shape"/>
</filter>
</defs>
</svg>
