<svg width="48" height="42" viewBox="0 0 48 42" fill="none" xmlns="http://www.w3.org/2000/svg">
<path d="M7.93989 1C9.73832 4.81238 12.5933 3.58989 16.3425 2.45534C30.9702 -1.97137 42.0754 6.53154 43.1393 17.4794C44.882 16.7301 46.9914 18.2164 46.9109 19.8612C46.8303 21.5061 45.4245 22.9552 43.1393 22.4424C43.1579 26.1285 38.7684 30.1824 46.4476 33.2306C44.0287 34.7156 41.8178 36.7197 38.045 34.8184C32.8752 40.6893 25.7582 42.6525 17.0039 39.5176C7.93989 36.2713 5.09361 27.486 4.56474 21.3178C2.89512 21.1048 1.16729 20.2155 1.08802 18.1346C1.00875 16.0563 3.21096 14.731 5.09361 16.3201C5.29179 13.2038 7.2116 10.3439 9.13141 7.48525C6.60469 5.22235 6.77933 3.08826 7.93989 1Z" stroke="#878787" stroke-width="1.5" stroke-linecap="round" stroke-linejoin="round"/>
<path d="M12.3672 9.93333C18.7992 10.6368 24.5227 10.0138 28.8417 6.75635C31.1033 10.8264 33.3625 12.0377 35.6242 13.0769M32.7791 24.0631C34.4141 23.7312 34.5788 24.815 34.4327 25.4528C31.9827 36.1481 17.5569 35.3504 14.6499 26.8425C14.2523 25.6783 15.0636 24.9661 16.3369 25.1556C21.7644 25.9582 27.2637 25.1816 32.7791 24.0631Z" stroke="#878787" stroke-width="1.5" stroke-linecap="round" stroke-linejoin="round"/>
<path d="M15.9283 18.5196C16.6588 18.5196 17.2511 17.9274 17.2511 17.1968C17.2511 16.4663 16.6588 15.874 15.9283 15.874C15.1977 15.874 14.6055 16.4663 14.6055 17.1968C14.6055 17.9274 15.1977 18.5196 15.9283 18.5196Z" stroke="#878787" stroke-width="1.5" stroke-linecap="round" stroke-linejoin="round"/>
<path d="M31.0806 18.3224C31.8112 18.3224 32.4034 17.7301 32.4034 16.9996C32.4034 16.269 31.8112 15.6768 31.0806 15.6768C30.3501 15.6768 29.7578 16.269 29.7578 16.9996C29.7578 17.7301 30.3501 18.3224 31.0806 18.3224Z" stroke="#878787" stroke-width="1.5" stroke-linecap="round" stroke-linejoin="round"/>
<path d="M21.1953 20.4405C21.1953 19.3444 22.0834 18.4551 23.1795 18.4551C24.2744 18.4551 25.1625 19.3444 25.1625 20.4393L21.1953 20.4405Z" stroke="#878787" stroke-width="1.5" stroke-linecap="round" stroke-linejoin="round"/>
</svg>
