<svg width="38" height="40" viewBox="0 0 38 40" fill="none" xmlns="http://www.w3.org/2000/svg">
<path d="M8.81644 11.5566C8.331 8.51594 7.87225 5.49663 7.3228 2.49599C7.27212 2.22393 6.63198 1.89853 6.25323 1.87986C4.7009 1.81051 3.14057 1.9012 1.59091 1.81051C1.21216 1.78917 0.862744 1.29574 0.5 1.01835C0.865411 0.682276 1.2175 0.0714746 1.59625 0.0554712C3.63668 -0.0405493 5.68245 0.0207965 7.72555 0.00479305C8.68042 -0.00320866 8.88313 0.612921 9.00582 1.37842C9.54727 4.78448 10.1101 8.18787 10.6835 11.714C13.5615 11.714 16.3514 11.7406 19.1387 11.6713C19.4214 11.6633 19.8775 11.1058 19.9362 10.7484C20.5656 6.89426 22.8008 4.42173 26.4415 3.24548C31.6026 1.57846 37.5266 5.75269 37.8093 11.1832C38.0787 16.3176 35.5635 19.8384 30.5598 21.204C29.7916 21.412 29.5996 21.7588 29.5516 22.4736C29.3248 25.885 29.0768 29.2937 28.7834 32.6998C28.4153 36.986 25.3693 39.8533 21.0484 39.952C18.2958 40.016 15.5379 40.016 12.7853 39.952C8.64041 39.8533 5.63177 36.9327 5.28769 32.7745C4.75425 26.3598 4.2048 19.9477 3.69536 13.5303C3.55933 11.8046 3.68201 11.7246 5.41839 11.7166C6.39459 11.7113 7.37347 11.706 8.34968 11.6953C8.43236 11.6953 8.51504 11.6473 8.81644 11.5566ZM12.2252 21.1826C12.6439 23.7672 13.0387 26.1624 13.4174 28.5629C13.7508 30.662 14.1056 32.7611 14.3536 34.8709C14.3936 35.2043 13.9269 35.5991 13.6948 35.9671C13.3588 35.6951 12.9667 35.4684 12.7106 35.135C12.5426 34.9162 12.5666 34.5428 12.5159 34.2388C11.8678 30.2139 11.241 26.1891 10.5528 22.1695C10.4888 21.7881 10.0887 21.1987 9.798 21.1693C8.62175 21.0546 7.42948 21.1213 6.20255 21.1213C6.17055 21.4921 6.12254 21.7081 6.13854 21.9161C6.45861 25.5836 6.75734 29.2537 7.11741 32.9158C7.41348 35.8951 9.74732 38.0609 12.716 38.1089C15.6019 38.1543 18.4878 38.1543 21.3738 38.1089C24.1824 38.0636 26.5642 35.9245 26.919 33.1425C27.1324 31.4728 27.2631 29.7898 27.3884 28.1095C27.5564 25.829 27.6845 23.5458 27.8339 21.1853H12.2198L12.2252 21.1826ZM21.1978 11.5753C21.3551 11.6339 21.4352 11.6873 21.5178 11.69C23.825 11.7033 26.1321 11.7086 28.4393 11.7166C30.253 11.722 30.4184 11.9407 30.253 13.7357C30.0637 15.7948 29.9356 17.8593 29.7809 19.9477C33.7898 19.5423 36.7531 15.8215 36.5584 11.6393C36.369 7.56907 32.8776 4.23236 28.8101 4.18169C24.5691 4.12834 21.0671 7.97183 21.2004 11.5726L21.1978 11.5753ZM11.0089 13.6317C11.2916 15.4161 11.6064 17.1098 11.8144 18.8168C11.9238 19.7183 12.3159 19.9557 13.1907 19.9477C17.7197 19.905 22.2513 19.9317 26.7803 19.9237C27.159 19.9237 27.5378 19.857 27.9699 19.817C28.1246 17.6912 28.2713 15.6828 28.4206 13.6344H11.0062L11.0089 13.6317ZM5.49841 13.6557C5.63978 15.5308 5.74913 17.3338 5.94117 19.1289C5.97051 19.4116 6.36525 19.8624 6.61864 19.881C7.74688 19.9637 8.8858 19.9157 10.1767 19.9157C9.97136 18.6834 9.79799 17.6459 9.62462 16.6083C9.26366 14.4354 7.88826 13.4512 5.49841 13.6557Z" fill="#878787"/>
</svg>
