<svg width="38" height="40" viewBox="0 0 38 40" fill="none" xmlns="http://www.w3.org/2000/svg">
<path d="M5.38692 38.4898C2.60973 36.2991 0.635953 33.7147 0.218169 30.3216C-0.116594 27.5953 0.0307087 24.8074 0.0414211 22.0463C0.0414211 21.7758 0.547578 21.4196 0.890375 21.2616C1.19032 21.125 1.59204 21.2107 1.94823 21.2107C13.1481 21.2107 24.3506 21.2107 35.5504 21.2107C37.4867 21.2107 37.5108 21.2268 37.4974 23.1363C37.4786 25.4555 37.6527 27.8042 37.3367 30.0833C36.8546 33.546 34.9907 36.283 32.0367 38.4925C33.2874 38.4925 34.5461 38.4255 35.7887 38.5246C36.3003 38.5674 37.168 38.9236 37.2055 39.2209C37.3287 40.1743 36.4556 39.9841 35.8718 39.9841C24.447 39.9922 13.0249 39.9922 1.60008 39.9841C1.01625 39.9841 0.15926 40.177 0.261028 39.2182C0.290487 38.9343 1.08589 38.5594 1.55188 38.5246C2.82397 38.4282 4.10679 38.4925 5.38692 38.4925V38.4898ZM35.5049 23.2273H1.90271C1.90271 24.9413 1.81968 26.583 1.91877 28.2139C2.27496 34.1191 6.25997 37.8979 12.1732 37.9488C16.5439 37.9863 20.9119 37.9649 25.2825 37.9515C27.2242 37.9461 29.0747 37.5632 30.7807 36.5616C33.8632 34.7512 35.9628 30.7903 35.3763 27.673C34.913 27.673 34.4283 27.673 33.9435 27.673C28.815 27.673 23.6864 27.673 18.5605 27.673C18.2043 27.673 17.808 27.7506 17.5027 27.6194C17.2429 27.5096 16.9965 27.1749 16.9295 26.8937C16.8974 26.7597 17.2643 26.4196 17.5 26.3554C17.8776 26.2563 18.2954 26.2991 18.6971 26.2991C23.7801 26.2991 28.8632 26.2991 33.9462 26.2938C34.4631 26.2938 34.98 26.2402 35.5049 26.2107V23.2273Z" fill="#878787"/>
<path d="M10.5388 15.3906C4.69788 16.3949 0.20135 11.5797 1.64217 6.09498C1.85106 5.29959 2.22064 4.82289 3.11245 4.62471C5.82269 4.01946 8.20619 4.62471 10.0702 6.61453C11.9904 8.66595 12.9491 11.0682 11.8163 13.9337C11.6797 14.2765 11.8565 14.7693 11.9636 15.1737C12.1216 15.7736 12.443 16.344 12.5019 16.9466C12.5394 17.3135 12.2153 17.7179 12.0546 18.1062C11.7708 17.8438 11.3851 17.6349 11.2244 17.3108C10.9325 16.727 10.7745 16.0735 10.5388 15.3879V15.3906ZM10.6942 12.6295C11.4146 9.93268 9.38456 6.66809 6.47078 6.01731C3.0321 5.2487 2.62503 5.92626 2.90623 8.95518C2.91426 9.04356 2.91158 9.13193 2.91961 9.22299C3.11244 11.6975 6.30475 14.9836 9.79164 13.8802C8.8061 12.8572 7.86608 11.9386 7.0064 10.9477C6.74663 10.6477 6.72253 10.1496 6.5913 9.73986C7.00908 9.79342 7.54737 9.69969 7.82054 9.92732C8.80341 10.7468 9.6979 11.6761 10.6942 12.6322V12.6295Z" fill="#878787"/>
<path d="M27.145 15.3597C26.912 16.072 26.7566 16.771 26.446 17.3897C26.2933 17.6923 25.8488 17.8503 25.5381 18.0752C25.4096 17.7458 25.0775 17.32 25.1792 17.1058C26.0657 15.2927 25.5301 13.4555 25.4926 11.5943C25.4042 6.90761 30.0855 3.41806 34.5955 4.69819C35.1471 4.85352 35.8033 5.48287 35.9693 6.02652C37.611 11.4175 32.8734 16.5461 27.1423 15.3597H27.145ZM27.8386 13.8787C30.6881 14.6982 33.7786 12.928 34.5098 10.057C34.8258 8.81441 34.4642 7.40038 34.4107 6.06134C33.1118 6.11758 31.7219 5.90065 30.5301 6.2863C27.927 7.13257 26.2585 10.365 27.0673 12.7217C28.0368 11.7335 28.9313 10.7533 29.9115 9.8669C30.1525 9.64998 30.6667 9.73568 31.055 9.68479C30.9613 10.0919 30.9934 10.6087 30.7497 10.8846C29.8793 11.8755 28.9152 12.7833 27.8386 13.876V13.8787Z" fill="#878787"/>
<path d="M14.3945 7.03555C14.4427 3.9852 15.763 1.86951 18.1305 0.3189C18.8321 -0.141731 19.3758 -0.0774576 20.0668 0.34568C24.2366 2.8979 25.0587 8.50849 21.754 12.1078C21.5156 12.3676 21.2505 12.6917 20.9398 12.7774C19.8471 13.088 19.7293 13.8406 19.7507 14.81C19.7588 15.1743 19.3544 15.5492 19.1374 15.9188C18.8991 15.5385 18.4518 15.1502 18.4626 14.7752C18.4867 13.8245 18.1546 13.3585 17.3217 12.8095C15.2435 11.4437 14.4186 9.30657 14.3945 7.03287V7.03555ZM19.7882 12.0141C21.6308 10.4073 22.4556 8.73881 22.3672 6.66061C22.2655 4.29051 21.1139 2.57653 19.0598 1.4437C16.7513 2.8122 15.6184 4.75382 15.7925 7.35156C15.9103 9.12714 16.6548 10.6162 18.4224 11.9472C18.4224 10.2144 18.3795 8.81112 18.4518 7.41048C18.4706 7.03019 18.8455 6.66865 19.0571 6.29907C19.3008 6.6874 19.7293 7.06501 19.7561 7.4694C19.8445 8.84058 19.7909 10.2225 19.7909 12.0114L19.7882 12.0141Z" fill="#878787"/>
<path d="M12.3351 27.6513C11.8075 27.3969 10.6372 28.2833 10.5274 26.8988C10.5167 26.7488 11.7808 26.4408 12.4744 26.3149C12.9859 26.2239 13.543 26.2453 14.0518 26.3471C14.3062 26.398 14.6919 26.7622 14.6758 26.9523C14.6544 27.2014 14.3196 27.5656 14.0652 27.6165C13.559 27.7209 13.0127 27.6486 12.3351 27.6486V27.6513Z" fill="#878787"/>
</svg>
