<svg width="24" height="24" viewBox="0 0 24 24" fill="none" xmlns="http://www.w3.org/2000/svg">
<path d="M10.583 8.29705C11.407 5.49355 14.7445 4.33305 17.1295 6.02105C19.1925 7.48005 19.5385 10.404 17.8735 12.3045L16.3085 14.0915C13.6992 17.071 10.4038 19.3706 6.70698 20.7915L4.92798 21.476C4.66723 21.576 4.37931 21.5794 4.1163 21.4855C3.85328 21.3917 3.63253 21.2068 3.49397 20.9643C3.3554 20.7219 3.30817 20.4378 3.36081 20.1636C3.41345 19.8893 3.5625 19.643 3.78098 19.469L5.17098 18.365C7.25341 16.7107 8.77362 14.4532 9.52348 11.9015L10.583 8.29705Z" fill="#C41230" stroke="#C41230" stroke-width="2"/>
<path d="M14.9219 5.34198C15.0419 4.97755 15.2454 4.64616 15.5161 4.3742C15.7868 4.10224 16.1172 3.89721 16.4811 3.77543C16.8449 3.65364 17.2322 3.61847 17.612 3.6727C17.9919 3.72693 18.3538 3.86908 18.6691 4.08782C18.9843 4.30656 19.2442 4.59587 19.4279 4.93271C19.6117 5.26955 19.7143 5.64463 19.7276 6.02811C19.7409 6.41159 19.6645 6.79287 19.5045 7.14162C19.3444 7.49037 19.1052 7.79695 18.8059 8.03698" stroke="#C41230" stroke-width="2"/>
<path d="M21 2L19 4" stroke="#C41230" stroke-width="2" stroke-linecap="round"/>
</svg>
